/* XPM */
static char * back04hl_xpm[] = {
"40 20 163 2",
"  	c None",
". 	c #BCC3E5",
"+ 	c #BCC3E6",
"@ 	c #A8AFD2",
"# 	c #BFC6E9",
"$ 	c #A9B1D3",
"% 	c #99A1C3",
"& 	c #BEC5E8",
"* 	c #BAC2E4",
"= 	c #969DBF",
"- 	c #CBD2F4",
"; 	c #CCD4F6",
"> 	c #C1C8EB",
", 	c #CBD2F5",
"' 	c #99A0C3",
") 	c #ADB4D7",
"! 	c #D3DAFD",
"~ 	c #A2A9CC",
"{ 	c #CFD7F9",
"] 	c #BEC5E7",
"^ 	c #AEB6D8",
"/ 	c #D6DCFF",
"( 	c #C2CAEC",
"_ 	c #D4DCFE",
": 	c #B0B8DA",
"< 	c #B9C0E2",
"[ 	c #B4BBDD",
"} 	c #D3DBFD",
"| 	c #A6ADD0",
"1 	c #C6CDF0",
"2 	c #B7BEE1",
"3 	c #D2D9FC",
"4 	c #C0C7EA",
"5 	c #C4CCEE",
"6 	c #DCDBFD",
"7 	c #C0C7E9",
"8 	c #ACB3D6",
"9 	c #D1D9FB",
"0 	c #C8CFF2",
"a 	c #CAD1F4",
"b 	c #DDDDFE",
"c 	c #B1B8DA",
"d 	c #B6BDE0",
"e 	c #CAD2F4",
"f 	c #A8AFD1",
"g 	c #CAD1F3",
"h 	c #CED4F6",
"i 	c #A4ACCE",
"j 	c #C2C9EC",
"k 	c #AAB2D4",
"l 	c #AEB5D7",
"m 	c #B6BDDF",
"n 	c #ACB4D6",
"o 	c #BFC7E9",
"p 	c #A9B0D3",
"q 	c #B3BBDD",
"r 	c #C7CFF1",
"s 	c #C8CFF1",
"t 	c #D7DBFD",
"u 	c #B4BBDE",
"v 	c #AFB6D9",
"w 	c #9198BB",
"x 	c #A3AACD",
"y 	c #A5ACCE",
"z 	c #C3CAED",
"A 	c #AEB5D8",
"B 	c #9CA3C6",
"C 	c #BDC4E7",
"D 	c #A3AACC",
"E 	c #AFB6D8",
"F 	c #B0B7D9",
"G 	c #B6BEE0",
"H 	c #C4CBED",
"I 	c #9DA4C7",
"J 	c #BEC6E8",
"K 	c #DFDCFC",
"L 	c #BAC1E4",
"M 	c #CDD4F7",
"N 	c #B7BFE1",
"O 	c #AFB7D9",
"P 	c #BBC2E5",
"Q 	c #AAB1D4",
"R 	c #A0A7CA",
"S 	c #B3BADD",
"T 	c #A9B0D2",
"U 	c #9AA2C4",
"V 	c #A3ABCD",
"W 	c #B2B9DB",
"X 	c #A6ADCF",
"Y 	c #969EC0",
"Z 	c #A0A8CA",
"` 	c #B8BFE1",
" .	c #B2B9DC",
"..	c #B1B8DB",
"+.	c #B1B9DB",
"@.	c #A5ACCF",
"#.	c #B0B7DA",
"$.	c #9EA5C8",
"%.	c #BDC5E7",
"&.	c #B8BFE2",
"*.	c #C4CBEE",
"=.	c #B8C0E2",
"-.	c #C6CEF0",
";.	c #C0C8EA",
">.	c #CDD5F7",
",.	c #D9DCFE",
"'.	c #C9D0F3",
").	c #D1D8FB",
"!.	c #D4D8FB",
"~.	c #ABB3D5",
"{.	c #B4BCDE",
"].	c #A2A9CB",
"^.	c #C6CDEF",
"/.	c #A1A8CB",
"(.	c #B5BDDF",
"_.	c #B2BADC",
":.	c #BBC2E4",
"<.	c #B9C0E3",
"[.	c #B3BADC",
"}.	c #ACB3D5",
"|.	c #9CA4C6",
"1.	c #ABB2D5",
"2.	c #C2C9EB",
"3.	c #B7BEE0",
"4.	c #A6AED0",
"5.	c #C4C8EB",
"6.	c #A8B0D2",
"7.	c #B9C1E3",
"8.	c #D2D2F3",
"9.	c #D7DAFD",
"0.	c #DBD8F8",
"a.	c #CCD3F6",
"b.	c #ABB2D4",
"c.	c #9FA6C9",
"d.	c #A2AACC",
"e.	c #9BA2C5",
"f.	c #A4ABCD",
"g.	c #C3CBED",
"h.	c #CED3F6",
"i.	c #B1B7D9",
"j.	c #BCC4E6",
"k.	c #979EC1",
"l.	c #979FC1",
"m.	c #A4ABCE",
"n.	c #C5CDEF",
"o.	c #B5BCDF",
"p.	c #B6BCDF",
"q.	c #ADB1D3",
"r.	c #C1C9EB",
"s.	c #BEBFDF",
"t.	c #D1D2F5",
"u.	c #C7CEF1",
"v.	c #BFC6E8",
"w.	c #D0D8FA",
"x.	c #D0D7FA",
"y.	c #D8DCFE",
"z.	c #C5CCEF",
"A.	c #CCD1F4",
"B.	c #AAB1D3",
"C.	c #9EA6C8",
"D.	c #C9D1F3",
"E.	c #D6DDFF",
"F.	c #D8DDFF",
". + @ . # $ % & * = - ; % > , ' ) ! & ~ ) { ] ^ / ( ^ { _ : < , [ ) ; } | | 1 2 ",
"] 3 4 5 6 7 8 9 0 | a b c d e f f g h ' i j k l ( m n o ] p q r * @ s t u v g & ",
"w ~ x y z A B 5 C D E & F G H k I J K L E M N O P Q R S T U V W X Y 8 u x Z ` Q ",
" ...: ..a +.' * ..@.G q R S 5 #.$.8 , G @.%.&.P *.&.=.; -.+ > a ;.+ + : F ..>.M ",
"z , M 5 ,.# @ '.# q ).!.~.{.{ P ].p ^.) /.(.p _.:.x | # <.8 P # A & M C [.}.4 { ",
"|.@.v 1.2.3.4.5.j 6.7.8.v p 9.0.P ` ).1 ] a o ( a.G Q ` S 4.q ` x $ 2 b.c.$.d.@ ",
"Q #.T e.+.&.) :.* D @.7 $ ' =.u f.~.#./.Q + ` & g.[ %.h.L i.+ L #.S ;.j. .< 4 L ",
"o '.r {.P + u g.& F  .H _.~.%.@ k.+.=.= l. .m...n.e.f.M o.x p.q.A r.*.s.* 7 t._ ",
" .u.v.N g.q 1.'.n.C a w.7.+ x.+ ~.# b z ^ j m m y.+ Q ).z.c ; G T A.u.A +.+ l B.",
"| 1 y D M v x *.u C.q ] R ^ ! D./.| ^.o.) (.E )  .1.C.r 0 1.E.# k.0 s y L F.1.% ",
") { ] ^ / ( ^ { _ : < , [ ) ; } | | 1 2 . + @ . # $ % & * = - ; % > , ' ) ! & ~ ",
"i j k l ( m n o ] p q r * @ s t u v g & ] 3 4 5 6 7 8 9 0 | a b c d e f f g h ' ",
"E M N O P Q R S T U V W X Y 8 u x Z ` Q w ~ x y z A B 5 C D E & F G H k I J K L ",
"@.%.&.P *.&.=.; -.+ > a ;.+ + : F ..>.M  ...: ..a +.' * ..@.G q R S 5 #.$.8 , G ",
"/.(.p _.:.x | # <.8 P # A & M C [.}.4 { z , M 5 ,.# @ '.# q ).!.~.{.{ P ].p ^.) ",
"] a o ( a.G Q ` S 4.q ` x $ 2 b.c.$.d.@ |.@.v 1.2.3.4.5.j 6.7.8.v p 9.0.P ` ).1 ",
"Q + ` & g.[ %.h.L i.+ L #.S ;.j. .< 4 L Q #.T e.+.&.) :.* D @.7 $ ' =.u f.~.#./.",
"l. .m...n.e.f.M o.x p.q.A r.*.s.* 7 t._ o '.r {.P + u g.& F  .H _.~.%.@ k.+.=.= ",
"^ j m m y.+ Q ).z.c ; G T A.u.A +.+ l B. .u.v.N g.q 1.'.n.C a w.7.+ x.+ ~.# b z ",
") (.E )  .1.C.r 0 1.E.# k.0 s y L F.1.% | 1 y D M v x *.u C.q ] R ^ ! D./.| ^.o."};
