/* XPM */
static char * collapse06_xpm[] = {
"17 17 2 1",
" 	c None",
".	c #A00800",
"                 ",
"                 ",
"                 ",
"                 ",
"                 ",
"                 ",
"    .........    ",
"     .......     ",
"      .....      ",
"       ...       ",
"        .        ",
"                 ",
"                 ",
"                 ",
"                 ",
"                 ",
"                 "};
