/* XPM */
static char * expand02_xpm[] = {
"19 19 2 1",
" 	c None",
".	c #FFFFFF",
"                   ",
"                   ",
"                   ",
"                   ",
"                   ",
"       .           ",
"       ..          ",
"       ...         ",
"       ....        ",
"       .....       ",
"       ....        ",
"       ...         ",
"       ..          ",
"       .           ",
"                   ",
"                   ",
"                   ",
"                   ",
"                   "};
