/* XPM */
static char * expand07_xpm[] = {
"17 17 3 1",
" 	c None",
".	c #000000",
"+	c #FFFFFF",
"      . . .      ",
"     . . . .     ",
"    . . . . .    ",
"   . . . . . .   ",
"  . . .+. . . .  ",
" . . .+++. . . . ",
". . . .+++. . . .",
" . . . .+++. . . ",
". . . . .+++. . .",
" . . . .+++. . . ",
". . . .+++. . . .",
" . . .+++. . . . ",
"  . . .+. . . .  ",
"   . . . . . .   ",
"    . . . . .    ",
"     . . . .     ",
"      . . .      "};
