/* XPM */
static char * expand08_xpm[] = {
"19 19 2 1",
" 	c None",
".	c #FFFFFF",
"                   ",
"                   ",
"                   ",
"                   ",
"                   ",
"                   ",
"                   ",
"                   ",
"     .........     ",
"      .......      ",
"       .....       ",
"        ...        ",
"         .         ",
"                   ",
"                   ",
"                   ",
"                   ",
"                   ",
"                   "};
