/* XPM */
static char * expand06_xpm[] = {
"17 17 2 1",
" 	c None",
".	c #FFFFFF",
"                 ",
"                 ",
"                 ",
"                 ",
"      .          ",
"      ..         ",
"      ...        ",
"      ....       ",
"      .....      ",
"      ....       ",
"      ...        ",
"      ..         ",
"      .          ",
"                 ",
"                 ",
"                 ",
"                 "};
